<mxfile host="app.diagrams.net" modified="2023-12-08T07:06:51.370Z" agent="Mozilla/5.0 (Windows NT 10.0; Win64; x64; rv:120.0) Gecko/20100101 Firefox/120.0" etag="FbtCTNBCuUbwNLT4QCLc" version="22.1.7" type="github">
  <diagram name="第 1 页" id="7Qjpa9ZFu0fZMU6uaSOI">
    <mxGraphModel dx="1578" dy="739" grid="1" gridSize="10" guides="1" tooltips="1" connect="1" arrows="1" fold="1" page="1" pageScale="1" pageWidth="827" pageHeight="1169" math="0" shadow="0">
      <root>
        <mxCell id="0" />
        <mxCell id="1" parent="0" />
        <mxCell id="sBUcJT7NgdSLqTTxF6SH-1" value="" style="rounded=0;whiteSpace=wrap;html=1;" vertex="1" parent="1">
          <mxGeometry x="60" y="30" width="120" height="60" as="geometry" />
        </mxCell>
      </root>
    </mxGraphModel>
  </diagram>
</mxfile>
